<?plantuml 1.2026.2?><svg xmlns="http://www.w3.org/2000/svg" xmlns:xlink="http://www.w3.org/1999/xlink" contentStyleType="text/css" data-diagram-type="CLASS" height="693px" preserveAspectRatio="none" style="width:1396px;height:693px;background:#FFFFFF;" version="1.1" viewBox="0 0 1396 693" width="1396px" zoomAndPan="magnify"><defs/><g><!--cluster Core--><g class="cluster" data-qualified-name="Core" data-source-line="5" id="ent0002"><path d="M40.99,6 L75.4724,6 A3.75,3.75 0 0 1 77.9724,8.5 L84.9724,28.4883 L1064.57,28.4883 A2.5,2.5 0 0 1 1067.07,30.9883 L1067.07,351.5 A2.5,2.5 0 0 1 1064.57,354 L40.99,354 A2.5,2.5 0 0 1 38.49,351.5 L38.49,8.5 A2.5,2.5 0 0 1 40.99,6" fill="none" style="stroke:#000000;stroke-width:1.5;"/><line style="stroke:#000000;stroke-width:1.5;" x1="38.49" x2="84.9724" y1="28.4883" y2="28.4883"/><text fill="#000000" font-family="sans-serif" font-size="14" font-weight="bold" lengthAdjust="spacing" textLength="33.4824" x="42.49" y="21.5352">Core</text></g><!--cluster Instructions--><g class="cluster" data-qualified-name="Instructions" data-source-line="18" id="ent0012"><path d="M8.5,378 L96.2139,378 A3.75,3.75 0 0 1 98.7139,380.5 L105.7139,400.4883 L534.6,400.4883 A2.5,2.5 0 0 1 537.1,402.9883 L537.1,557.5 A2.5,2.5 0 0 1 534.6,560 L8.5,560 A2.5,2.5 0 0 1 6,557.5 L6,380.5 A2.5,2.5 0 0 1 8.5,378" fill="none" style="stroke:#000000;stroke-width:1.5;"/><line style="stroke:#000000;stroke-width:1.5;" x1="6" x2="105.7139" y1="400.4883" y2="400.4883"/><text fill="#000000" font-family="sans-serif" font-size="14" font-weight="bold" lengthAdjust="spacing" textLength="86.7139" x="10" y="393.5352">Instructions</text></g><!--cluster Games / Moving--><g class="cluster" data-qualified-name="Games . Moving" data-source-line="24" id="ent0016"><path d="M590.22,421 L709.6663,421 A3.75,3.75 0 0 1 712.1663,423.5 L719.1663,443.4883 L1387.21,443.4883 A2.5,2.5 0 0 1 1389.71,445.9883 L1389.71,683.5 A2.5,2.5 0 0 1 1387.21,686 L590.22,686 A2.5,2.5 0 0 1 587.72,683.5 L587.72,423.5 A2.5,2.5 0 0 1 590.22,421" fill="none" style="stroke:#000000;stroke-width:1.5;"/><line style="stroke:#000000;stroke-width:1.5;" x1="587.72" x2="719.1663" y1="443.4883" y2="443.4883"/><text fill="#000000" font-family="sans-serif" font-size="14" font-weight="bold" lengthAdjust="spacing" textLength="118.4463" x="591.72" y="436.5352">Games / Moving</text></g><!--class IGame--><g class="entity" data-qualified-name="Core.IGame" data-source-line="6" id="ent0003"><rect fill="#F1F1F1" height="48" rx="2.5" ry="2.5" style="stroke:#181818;stroke-width:0.5;" width="74.752" x="365.56" y="290"/><ellipse cx="380.56" cy="306" fill="#B4A7E5" rx="11" ry="11" style="stroke:#181818;stroke-width:1;"/><path d="M376.9877,302.2651 L376.9877,300.1069 L384.3671,300.1069 L384.3671,302.2651 L381.9018,302.2651 L381.9018,310.3418 L384.3671,310.3418 L384.3671,312.5 L376.9877,312.5 L376.9877,310.3418 L379.4531,310.3418 L379.4531,302.2651 Z " fill="#000000"/><text fill="#000000" font-family="sans-serif" font-size="14" font-style="italic" lengthAdjust="spacing" textLength="42.752" x="394.56" y="311.291">IGame</text><line style="stroke:#181818;stroke-width:0.5;" x1="366.56" x2="439.312" y1="322" y2="322"/><line style="stroke:#181818;stroke-width:0.5;" x1="366.56" x2="439.312" y1="330" y2="330"/></g><!--class IInstructionDefinition--><g class="entity" data-qualified-name="Core.IInstructionDefinition" data-source-line="7" id="ent0004"><rect fill="#F1F1F1" height="48" rx="2.5" ry="2.5" style="stroke:#181818;stroke-width:0.5;" width="176.0742" x="842.73" y="290"/><ellipse cx="857.73" cy="306" fill="#B4A7E5" rx="11" ry="11" style="stroke:#181818;stroke-width:1;"/><path d="M854.1577,302.2651 L854.1577,300.1069 L861.5371,300.1069 L861.5371,302.2651 L859.0718,302.2651 L859.0718,310.3418 L861.5371,310.3418 L861.5371,312.5 L854.1577,312.5 L854.1577,310.3418 L856.6231,310.3418 L856.6231,302.2651 Z " fill="#000000"/><text fill="#000000" font-family="sans-serif" font-size="14" font-style="italic" lengthAdjust="spacing" textLength="144.0742" x="871.73" y="311.291">IInstructionDefinition</text><line style="stroke:#181818;stroke-width:0.5;" x1="843.73" x2="1017.8042" y1="322" y2="322"/><line style="stroke:#181818;stroke-width:0.5;" x1="843.73" x2="1017.8042" y1="330" y2="330"/></g><!--class InstructionInstance--><g class="entity" data-qualified-name="Core.InstructionInstance" data-source-line="8" id="ent0005"><rect fill="#F1F1F1" height="48" rx="2.5" ry="2.5" style="stroke:#181818;stroke-width:0.5;" width="161.7393" x="584.91" y="207"/><ellipse cx="599.91" cy="223" fill="#ADD1B2" rx="11" ry="11" style="stroke:#181818;stroke-width:1;"/><path d="M602.3831,229.1431 Q601.8021,229.4419 601.1629,229.5913 Q600.5238,229.7407 599.8182,229.7407 Q597.3114,229.7407 595.9915,228.0889 Q594.6717,226.437 594.6717,223.3159 Q594.6717,220.1865 595.9915,218.5347 Q597.3114,216.8828 599.8182,216.8828 Q600.5238,216.8828 601.1712,217.0322 Q601.8187,217.1816 602.3831,217.4805 L602.3831,220.2031 Q601.7523,219.6221 601.1588,219.3523 Q600.5653,219.0825 599.9344,219.0825 Q598.5897,219.0825 597.9049,220.1492 Q597.2201,221.2158 597.2201,223.3159 Q597.2201,225.4077 597.9049,226.4744 Q598.5897,227.541 599.9344,227.541 Q600.5653,227.541 601.1588,227.2712 Q601.7523,227.0015 602.3831,226.4204 Z " fill="#000000"/><text fill="#000000" font-family="sans-serif" font-size="14" lengthAdjust="spacing" textLength="129.7393" x="613.91" y="228.291">InstructionInstance</text><line style="stroke:#181818;stroke-width:0.5;" x1="585.91" x2="745.6493" y1="239" y2="239"/><line style="stroke:#181818;stroke-width:0.5;" x1="585.91" x2="745.6493" y1="247" y2="247"/></g><!--class InstructionParameterDefinition--><g class="entity" data-qualified-name="Core.InstructionParameterDefinition" data-source-line="9" id="ent0006"><rect fill="#F1F1F1" height="48" rx="2.5" ry="2.5" style="stroke:#181818;stroke-width:0.5;" width="240.6055" x="810.46" y="207"/><ellipse cx="825.46" cy="223" fill="#ADD1B2" rx="11" ry="11" style="stroke:#181818;stroke-width:1;"/><path d="M827.9331,229.1431 Q827.3521,229.4419 826.7129,229.5913 Q826.0738,229.7407 825.3682,229.7407 Q822.8614,229.7407 821.5415,228.0889 Q820.2217,226.437 820.2217,223.3159 Q820.2217,220.1865 821.5415,218.5347 Q822.8614,216.8828 825.3682,216.8828 Q826.0738,216.8828 826.7212,217.0322 Q827.3687,217.1816 827.9331,217.4805 L827.9331,220.2031 Q827.3023,219.6221 826.7088,219.3523 Q826.1153,219.0825 825.4844,219.0825 Q824.1397,219.0825 823.4549,220.1492 Q822.7701,221.2158 822.7701,223.3159 Q822.7701,225.4077 823.4549,226.4744 Q824.1397,227.541 825.4844,227.541 Q826.1153,227.541 826.7088,227.2712 Q827.3023,227.0015 827.9331,226.4204 Z " fill="#000000"/><text fill="#000000" font-family="sans-serif" font-size="14" lengthAdjust="spacing" textLength="208.6055" x="839.46" y="228.291">InstructionParameterDefinition</text><line style="stroke:#181818;stroke-width:0.5;" x1="811.46" x2="1050.0655" y1="239" y2="239"/><line style="stroke:#181818;stroke-width:0.5;" x1="811.46" x2="1050.0655" y1="247" y2="247"/></g><!--class ProgramDefinition--><g class="entity" data-qualified-name="Core.ProgramDefinition" data-source-line="11" id="ent0007"><rect fill="#F1F1F1" height="48" rx="2.5" ry="2.5" style="stroke:#181818;stroke-width:0.5;" width="156.1133" x="324.88" y="124"/><ellipse cx="339.88" cy="140" fill="#ADD1B2" rx="11" ry="11" style="stroke:#181818;stroke-width:1;"/><path d="M342.3531,146.1431 Q341.7721,146.4419 341.1329,146.5913 Q340.4938,146.7407 339.7882,146.7407 Q337.2814,146.7407 335.9615,145.0889 Q334.6417,143.437 334.6417,140.3159 Q334.6417,137.1865 335.9615,135.5347 Q337.2814,133.8828 339.7882,133.8828 Q340.4938,133.8828 341.1412,134.0322 Q341.7887,134.1816 342.3531,134.4805 L342.3531,137.2031 Q341.7223,136.6221 341.1288,136.3523 Q340.5353,136.0825 339.9044,136.0825 Q338.5597,136.0825 337.8749,137.1492 Q337.1901,138.2158 337.1901,140.3159 Q337.1901,142.4077 337.8749,143.4744 Q338.5597,144.541 339.9044,144.541 Q340.5353,144.541 341.1288,144.2712 Q341.7223,144.0015 342.3531,143.4204 Z " fill="#000000"/><text fill="#000000" font-family="sans-serif" font-size="14" lengthAdjust="spacing" textLength="124.1133" x="353.88" y="145.291">ProgramDefinition</text><line style="stroke:#181818;stroke-width:0.5;" x1="325.88" x2="479.9933" y1="156" y2="156"/><line style="stroke:#181818;stroke-width:0.5;" x1="325.88" x2="479.9933" y1="164" y2="164"/></g><!--class ProgramRunner--><g class="entity" data-qualified-name="Core.ProgramRunner" data-source-line="12" id="ent0008"><rect fill="#F1F1F1" height="48" rx="2.5" ry="2.5" style="stroke:#181818;stroke-width:0.5;" width="137.7725" x="54.49" y="166"/><ellipse cx="69.49" cy="182" fill="#ADD1B2" rx="11" ry="11" style="stroke:#181818;stroke-width:1;"/><path d="M71.9631,188.1431 Q71.3821,188.4419 70.7429,188.5913 Q70.1038,188.7407 69.3982,188.7407 Q66.8914,188.7407 65.5715,187.0889 Q64.2517,185.437 64.2517,182.3159 Q64.2517,179.1865 65.5715,177.5347 Q66.8914,175.8828 69.3982,175.8828 Q70.1038,175.8828 70.7512,176.0322 Q71.3987,176.1816 71.9631,176.4805 L71.9631,179.2031 Q71.3323,178.6221 70.7388,178.3523 Q70.1453,178.0825 69.5144,178.0825 Q68.1697,178.0825 67.4849,179.1492 Q66.8001,180.2158 66.8001,182.3159 Q66.8001,184.4077 67.4849,185.4744 Q68.1697,186.541 69.5144,186.541 Q70.1453,186.541 70.7388,186.2712 Q71.3323,186.0015 71.9631,185.4204 Z " fill="#000000"/><text fill="#000000" font-family="sans-serif" font-size="14" lengthAdjust="spacing" textLength="105.7725" x="83.49" y="187.291">ProgramRunner</text><line style="stroke:#181818;stroke-width:0.5;" x1="55.49" x2="191.2625" y1="198" y2="198"/><line style="stroke:#181818;stroke-width:0.5;" x1="55.49" x2="191.2625" y1="206" y2="206"/></g><!--class ExecutionFrame--><g class="entity" data-qualified-name="Core.ExecutionFrame" data-source-line="13" id="ent0009"><rect fill="#F1F1F1" height="48" rx="2.5" ry="2.5" style="stroke:#181818;stroke-width:0.5;" width="140.2402" x="332.81" y="207"/><ellipse cx="347.81" cy="223" fill="#ADD1B2" rx="11" ry="11" style="stroke:#181818;stroke-width:1;"/><path d="M350.2831,229.1431 Q349.7021,229.4419 349.0629,229.5913 Q348.4238,229.7407 347.7182,229.7407 Q345.2114,229.7407 343.8915,228.0889 Q342.5717,226.437 342.5717,223.3159 Q342.5717,220.1865 343.8915,218.5347 Q345.2114,216.8828 347.7182,216.8828 Q348.4238,216.8828 349.0712,217.0322 Q349.7187,217.1816 350.2831,217.4805 L350.2831,220.2031 Q349.6523,219.6221 349.0588,219.3523 Q348.4653,219.0825 347.8344,219.0825 Q346.4897,219.0825 345.8049,220.1492 Q345.1201,221.2158 345.1201,223.3159 Q345.1201,225.4077 345.8049,226.4744 Q346.4897,227.541 347.8344,227.541 Q348.4653,227.541 349.0588,227.2712 Q349.6523,227.0015 350.2831,226.4204 Z " fill="#000000"/><text fill="#000000" font-family="sans-serif" font-size="14" lengthAdjust="spacing" textLength="108.2402" x="361.81" y="228.291">ExecutionFrame</text><line style="stroke:#181818;stroke-width:0.5;" x1="333.81" x2="472.0502" y1="239" y2="239"/><line style="stroke:#181818;stroke-width:0.5;" x1="333.81" x2="472.0502" y1="247" y2="247"/></g><!--class StepResult--><g class="entity" data-qualified-name="Core.StepResult" data-source-line="14" id="ent0010"><rect fill="#F1F1F1" height="48" rx="2.5" ry="2.5" style="stroke:#181818;stroke-width:0.5;" width="103.1484" x="351.36" y="41"/><ellipse cx="366.36" cy="57" fill="#ADD1B2" rx="11" ry="11" style="stroke:#181818;stroke-width:1;"/><path d="M368.8331,63.1431 Q368.2521,63.4419 367.6129,63.5913 Q366.9738,63.7407 366.2682,63.7407 Q363.7614,63.7407 362.4415,62.0889 Q361.1217,60.437 361.1217,57.3159 Q361.1217,54.1865 362.4415,52.5347 Q363.7614,50.8828 366.2682,50.8828 Q366.9738,50.8828 367.6212,51.0322 Q368.2687,51.1816 368.8331,51.4805 L368.8331,54.2031 Q368.2023,53.6221 367.6088,53.3523 Q367.0153,53.0825 366.3844,53.0825 Q365.0397,53.0825 364.3549,54.1492 Q363.6701,55.2158 363.6701,57.3159 Q363.6701,59.4077 364.3549,60.4744 Q365.0397,61.541 366.3844,61.541 Q367.0153,61.541 367.6088,61.2712 Q368.2023,61.0015 368.8331,60.4204 Z " fill="#000000"/><text fill="#000000" font-family="sans-serif" font-size="14" lengthAdjust="spacing" textLength="71.1484" x="380.36" y="62.291">StepResult</text><line style="stroke:#181818;stroke-width:0.5;" x1="352.36" x2="453.5084" y1="73" y2="73"/><line style="stroke:#181818;stroke-width:0.5;" x1="352.36" x2="453.5084" y1="81" y2="81"/></g><!--class StepExecutionStatus--><g class="entity" data-qualified-name="Core.StepExecutionStatus" data-source-line="15" id="ent0011"><rect fill="#F1F1F1" height="48" rx="2.5" ry="2.5" style="stroke:#181818;stroke-width:0.5;" width="169.3613" x="581.1" y="41"/><ellipse cx="596.1" cy="57" fill="#EB937F" rx="11" ry="11" style="stroke:#181818;stroke-width:1;"/><path d="M599.7143,63.5 L591.9945,63.5 L591.9945,51.1069 L599.7143,51.1069 L599.7143,53.2651 L594.4433,53.2651 L594.4433,55.938 L599.2162,55.938 L599.2162,58.0962 L594.4433,58.0962 L594.4433,61.3418 L599.7143,61.3418 Z " fill="#000000"/><text fill="#000000" font-family="sans-serif" font-size="14" lengthAdjust="spacing" textLength="137.3613" x="610.1" y="62.291">StepExecutionStatus</text><line style="stroke:#181818;stroke-width:0.5;" x1="582.1" x2="749.4613" y1="73" y2="73"/><line style="stroke:#181818;stroke-width:0.5;" x1="582.1" x2="749.4613" y1="81" y2="81"/></g><!--class InstructionDefinitionBase--><g class="entity" data-qualified-name="Instructions.InstructionDefinitionBase" data-source-line="19" id="ent0013"><rect fill="#F1F1F1" height="48" rx="2.5" ry="2.5" style="stroke:#181818;stroke-width:0.5;" width="202.7617" x="22" y="496"/><ellipse cx="37" cy="512" fill="#A9DCDF" rx="11" ry="11" style="stroke:#181818;stroke-width:1;"/><path d="M36.8633,507.3481 L35.7095,512.4199 L38.0254,512.4199 Z M35.3691,505.1069 L38.3657,505.1069 L41.7109,517.5 L39.2622,517.5 L38.4985,514.437 L35.2197,514.437 L34.4727,517.5 L32.0239,517.5 Z " fill="#000000"/><text fill="#000000" font-family="sans-serif" font-size="14" font-style="italic" lengthAdjust="spacing" textLength="170.7617" x="51" y="517.291">InstructionDefinitionBase</text><line style="stroke:#181818;stroke-width:0.5;" x1="23" x2="223.7617" y1="528" y2="528"/><line style="stroke:#181818;stroke-width:0.5;" x1="23" x2="223.7617" y1="536" y2="536"/></g><!--class SequenceInstructionDefinition--><g class="entity" data-qualified-name="Instructions.SequenceInstructionDefinition" data-source-line="20" id="ent0014"><rect fill="#F1F1F1" height="48" rx="2.5" ry="2.5" style="stroke:#181818;stroke-width:0.5;" width="236.3398" x="284.76" y="496"/><ellipse cx="299.76" cy="512" fill="#ADD1B2" rx="11" ry="11" style="stroke:#181818;stroke-width:1;"/><path d="M302.2331,518.1431 Q301.6521,518.4419 301.0129,518.5913 Q300.3738,518.7407 299.6682,518.7407 Q297.1614,518.7407 295.8415,517.0889 Q294.5217,515.437 294.5217,512.3159 Q294.5217,509.1865 295.8415,507.5347 Q297.1614,505.8828 299.6682,505.8828 Q300.3738,505.8828 301.0212,506.0322 Q301.6687,506.1816 302.2331,506.4805 L302.2331,509.2031 Q301.6023,508.6221 301.0088,508.3523 Q300.4153,508.0825 299.7844,508.0825 Q298.4397,508.0825 297.7549,509.1492 Q297.0701,510.2158 297.0701,512.3159 Q297.0701,514.4077 297.7549,515.4744 Q298.4397,516.541 299.7844,516.541 Q300.4153,516.541 301.0088,516.2712 Q301.6023,516.0015 302.2331,515.4204 Z " fill="#000000"/><text fill="#000000" font-family="sans-serif" font-size="14" lengthAdjust="spacing" textLength="204.3398" x="313.76" y="517.291">SequenceInstructionDefinition</text><line style="stroke:#181818;stroke-width:0.5;" x1="285.76" x2="520.0998" y1="528" y2="528"/><line style="stroke:#181818;stroke-width:0.5;" x1="285.76" x2="520.0998" y1="536" y2="536"/></g><!--class RepeatInstructionDefinition--><g class="entity" data-qualified-name="Instructions.RepeatInstructionDefinition" data-source-line="21" id="ent0015"><rect fill="#F1F1F1" height="48" rx="2.5" ry="2.5" style="stroke:#181818;stroke-width:0.5;" width="218.2725" x="293.8" y="413"/><ellipse cx="308.8" cy="429" fill="#ADD1B2" rx="11" ry="11" style="stroke:#181818;stroke-width:1;"/><path d="M311.2731,435.1431 Q310.6921,435.4419 310.0529,435.5913 Q309.4138,435.7407 308.7082,435.7407 Q306.2014,435.7407 304.8815,434.0889 Q303.5617,432.437 303.5617,429.3159 Q303.5617,426.1865 304.8815,424.5347 Q306.2014,422.8828 308.7082,422.8828 Q309.4138,422.8828 310.0612,423.0322 Q310.7087,423.1816 311.2731,423.4805 L311.2731,426.2031 Q310.6423,425.6221 310.0488,425.3523 Q309.4553,425.0825 308.8244,425.0825 Q307.4797,425.0825 306.7949,426.1492 Q306.1101,427.2158 306.1101,429.3159 Q306.1101,431.4077 306.7949,432.4744 Q307.4797,433.541 308.8244,433.541 Q309.4553,433.541 310.0488,433.2712 Q310.6423,433.0015 311.2731,432.4204 Z " fill="#000000"/><text fill="#000000" font-family="sans-serif" font-size="14" lengthAdjust="spacing" textLength="186.2725" x="322.8" y="434.291">RepeatInstructionDefinition</text><line style="stroke:#181818;stroke-width:0.5;" x1="294.8" x2="511.0725" y1="445" y2="445"/><line style="stroke:#181818;stroke-width:0.5;" x1="294.8" x2="511.0725" y1="453" y2="453"/></g><!--class IMovingGame--><g class="entity" data-qualified-name="Games . Moving.IMovingGame" data-source-line="25" id="ent0017"><rect fill="#F1F1F1" height="48" rx="2.5" ry="2.5" style="stroke:#181818;stroke-width:0.5;" width="124.1211" x="603.72" y="493"/><ellipse cx="618.72" cy="509" fill="#B4A7E5" rx="11" ry="11" style="stroke:#181818;stroke-width:1;"/><path d="M615.1477,505.2651 L615.1477,503.1069 L622.5271,503.1069 L622.5271,505.2651 L620.0618,505.2651 L620.0618,513.3418 L622.5271,513.3418 L622.5271,515.5 L615.1477,515.5 L615.1477,513.3418 L617.6131,513.3418 L617.6131,505.2651 Z " fill="#000000"/><text fill="#000000" font-family="sans-serif" font-size="14" font-style="italic" lengthAdjust="spacing" textLength="92.1211" x="632.72" y="514.291">IMovingGame</text><line style="stroke:#181818;stroke-width:0.5;" x1="604.72" x2="726.8411" y1="525" y2="525"/><line style="stroke:#181818;stroke-width:0.5;" x1="604.72" x2="726.8411" y1="533" y2="533"/></g><!--class MovingGame--><g class="entity" data-qualified-name="Games . Moving.MovingGame" data-source-line="26" id="ent0018"><rect fill="#F1F1F1" height="48" rx="2.5" ry="2.5" style="stroke:#181818;stroke-width:0.5;" width="120.0879" x="870.72" y="493"/><ellipse cx="885.72" cy="509" fill="#ADD1B2" rx="11" ry="11" style="stroke:#181818;stroke-width:1;"/><path d="M888.1931,515.1431 Q887.6121,515.4419 886.9729,515.5913 Q886.3338,515.7407 885.6282,515.7407 Q883.1214,515.7407 881.8015,514.0889 Q880.4817,512.437 880.4817,509.3159 Q880.4817,506.1865 881.8015,504.5347 Q883.1214,502.8828 885.6282,502.8828 Q886.3338,502.8828 886.9812,503.0322 Q887.6287,503.1816 888.1931,503.4805 L888.1931,506.2031 Q887.5623,505.6221 886.9688,505.3523 Q886.3753,505.0825 885.7444,505.0825 Q884.3997,505.0825 883.7149,506.1492 Q883.0301,507.2158 883.0301,509.3159 Q883.0301,511.4077 883.7149,512.4744 Q884.3997,513.541 885.7444,513.541 Q886.3753,513.541 886.9688,513.2712 Q887.5623,513.0015 888.1931,512.4204 Z " fill="#000000"/><text fill="#000000" font-family="sans-serif" font-size="14" lengthAdjust="spacing" textLength="88.0879" x="899.72" y="514.291">MovingGame</text><line style="stroke:#181818;stroke-width:0.5;" x1="871.72" x2="989.8079" y1="525" y2="525"/><line style="stroke:#181818;stroke-width:0.5;" x1="871.72" x2="989.8079" y1="533" y2="533"/></g><!--class MoveForwardInstructionDefinition--><g class="entity" data-qualified-name="Games . Moving.MoveForwardInstructionDefinition" data-source-line="27" id="ent0019"><rect fill="#F1F1F1" height="48" rx="2.5" ry="2.5" style="stroke:#181818;stroke-width:0.5;" width="262.6377" x="1111.07" y="622"/><ellipse cx="1126.07" cy="638" fill="#ADD1B2" rx="11" ry="11" style="stroke:#181818;stroke-width:1;"/><path d="M1128.5431,644.1431 Q1127.9621,644.4419 1127.3229,644.5913 Q1126.6838,644.7407 1125.9782,644.7407 Q1123.4714,644.7407 1122.1515,643.0889 Q1120.8317,641.437 1120.8317,638.3159 Q1120.8317,635.1865 1122.1515,633.5347 Q1123.4714,631.8828 1125.9782,631.8828 Q1126.6838,631.8828 1127.3312,632.0322 Q1127.9787,632.1816 1128.5431,632.4805 L1128.5431,635.2031 Q1127.9123,634.6221 1127.3188,634.3523 Q1126.7253,634.0825 1126.0944,634.0825 Q1124.7497,634.0825 1124.0649,635.1492 Q1123.3801,636.2158 1123.3801,638.3159 Q1123.3801,640.4077 1124.0649,641.4744 Q1124.7497,642.541 1126.0944,642.541 Q1126.7253,642.541 1127.3188,642.2712 Q1127.9123,642.0015 1128.5431,641.4204 Z " fill="#000000"/><text fill="#000000" font-family="sans-serif" font-size="14" lengthAdjust="spacing" textLength="230.6377" x="1140.07" y="643.291">MoveForwardInstructionDefinition</text><line style="stroke:#181818;stroke-width:0.5;" x1="1112.07" x2="1372.7077" y1="654" y2="654"/><line style="stroke:#181818;stroke-width:0.5;" x1="1112.07" x2="1372.7077" y1="662" y2="662"/></g><!--class RotateLeftInstructionDefinition--><g class="entity" data-qualified-name="Games . Moving.RotateLeftInstructionDefinition" data-source-line="28" id="ent0020"><rect fill="#F1F1F1" height="48" rx="2.5" ry="2.5" style="stroke:#181818;stroke-width:0.5;" width="241.1455" x="1121.81" y="456"/><ellipse cx="1136.81" cy="472" fill="#ADD1B2" rx="11" ry="11" style="stroke:#181818;stroke-width:1;"/><path d="M1139.2831,478.1431 Q1138.7021,478.4419 1138.0629,478.5913 Q1137.4238,478.7407 1136.7182,478.7407 Q1134.2114,478.7407 1132.8915,477.0889 Q1131.5717,475.437 1131.5717,472.3159 Q1131.5717,469.1865 1132.8915,467.5347 Q1134.2114,465.8828 1136.7182,465.8828 Q1137.4238,465.8828 1138.0712,466.0322 Q1138.7187,466.1816 1139.2831,466.4805 L1139.2831,469.2031 Q1138.6523,468.6221 1138.0588,468.3523 Q1137.4653,468.0825 1136.8344,468.0825 Q1135.4897,468.0825 1134.8049,469.1492 Q1134.1201,470.2158 1134.1201,472.3159 Q1134.1201,474.4077 1134.8049,475.4744 Q1135.4897,476.541 1136.8344,476.541 Q1137.4653,476.541 1138.0588,476.2712 Q1138.6523,476.0015 1139.2831,475.4204 Z " fill="#000000"/><text fill="#000000" font-family="sans-serif" font-size="14" lengthAdjust="spacing" textLength="209.1455" x="1150.81" y="477.291">RotateLeftInstructionDefinition</text><line style="stroke:#181818;stroke-width:0.5;" x1="1122.81" x2="1361.9555" y1="488" y2="488"/><line style="stroke:#181818;stroke-width:0.5;" x1="1122.81" x2="1361.9555" y1="496" y2="496"/></g><!--class RotateRightInstructionDefinition--><g class="entity" data-qualified-name="Games . Moving.RotateRightInstructionDefinition" data-source-line="29" id="ent0021"><rect fill="#F1F1F1" height="48" rx="2.5" ry="2.5" style="stroke:#181818;stroke-width:0.5;" width="251.0508" x="1116.86" y="539"/><ellipse cx="1131.86" cy="555" fill="#ADD1B2" rx="11" ry="11" style="stroke:#181818;stroke-width:1;"/><path d="M1134.3331,561.1431 Q1133.7521,561.4419 1133.1129,561.5913 Q1132.4738,561.7407 1131.7682,561.7407 Q1129.2614,561.7407 1127.9415,560.0889 Q1126.6217,558.437 1126.6217,555.3159 Q1126.6217,552.1865 1127.9415,550.5347 Q1129.2614,548.8828 1131.7682,548.8828 Q1132.4738,548.8828 1133.1212,549.0322 Q1133.7687,549.1816 1134.3331,549.4805 L1134.3331,552.2031 Q1133.7023,551.6221 1133.1088,551.3523 Q1132.5153,551.0825 1131.8844,551.0825 Q1130.5397,551.0825 1129.8549,552.1492 Q1129.1701,553.2158 1129.1701,555.3159 Q1129.1701,557.4077 1129.8549,558.4744 Q1130.5397,559.541 1131.8844,559.541 Q1132.5153,559.541 1133.1088,559.2712 Q1133.7023,559.0015 1134.3331,558.4204 Z " fill="#000000"/><text fill="#000000" font-family="sans-serif" font-size="14" lengthAdjust="spacing" textLength="219.0508" x="1145.86" y="560.291">RotateRightInstructionDefinition</text><line style="stroke:#181818;stroke-width:0.5;" x1="1117.86" x2="1366.9108" y1="571" y2="571"/><line style="stroke:#181818;stroke-width:0.5;" x1="1117.86" x2="1366.9108" y1="579" y2="579"/></g><!--reverse link IGame to IMovingGame--><g class="link" data-entity-1="ent0003" data-entity-2="ent0017" data-link-type="extension" data-source-line="32" id="lnk22"><path codeLine="32" d="M458.71,322 C526.71,322 644.71,322 644.71,322 C644.71,322 644.71,440.42 644.71,492.7" fill="none" id="IGame-backto-IMovingGame" style="stroke:#181818;stroke-width:1;"/><polygon fill="none" points="440.71,322,458.71,328,458.71,316,440.71,322" style="stroke:#181818;stroke-width:1;"/></g><!--reverse link IMovingGame to MovingGame--><g class="link" data-entity-1="ent0017" data-entity-2="ent0018" data-link-type="extension" data-source-line="33" id="lnk23"><path codeLine="33" d="M746.24,517 C789.24,517 828.04,517 870.55,517" fill="none" id="IMovingGame-backto-MovingGame" style="stroke:#181818;stroke-width:1;stroke-dasharray:7,7;"/><polygon fill="none" points="728.24,517,746.24,523,746.24,511,728.24,517" style="stroke:#181818;stroke-width:1;"/></g><!--reverse link IInstructionDefinition to InstructionDefinitionBase--><g class="link" data-entity-1="ent0004" data-entity-2="ent0013" data-link-type="extension" data-source-line="35" id="lnk24"><path codeLine="35" d="M856.71,356.31 C856.71,373.5 856.71,375.5 856.71,375.5 C856.71,375.5 200.71,375.5 200.71,375.5 C200.71,375.5 200.71,454.68 200.71,495.81" fill="none" id="IInstructionDefinition-backto-InstructionDefinitionBase" style="stroke:#181818;stroke-width:1;stroke-dasharray:7,7;"/><polygon fill="none" points="856.71,338.31,850.71,356.31,862.71,356.31,856.71,338.31" style="stroke:#181818;stroke-width:1;"/></g><!--reverse link InstructionDefinitionBase to SequenceInstructionDefinition--><g class="link" data-entity-1="ent0013" data-entity-2="ent0014" data-link-type="extension" data-source-line="37" id="lnk25"><path codeLine="37" d="M243.1,520 C262.45,520 264.87,520 284.69,520" fill="none" id="InstructionDefinitionBase-backto-SequenceInstructionDefinition" style="stroke:#181818;stroke-width:1;"/><polygon fill="none" points="225.1,520,243.1,526,243.1,514,225.1,520" style="stroke:#181818;stroke-width:1;"/></g><!--reverse link InstructionDefinitionBase to RepeatInstructionDefinition--><g class="link" data-entity-1="ent0013" data-entity-2="ent0015" data-link-type="extension" data-source-line="38" id="lnk26"><path codeLine="38" d="M208.71,477.55 C208.71,453.06 208.71,437 208.71,437 C208.71,437 249.28,437 293.33,437" fill="none" id="InstructionDefinitionBase-backto-RepeatInstructionDefinition" style="stroke:#181818;stroke-width:1;"/><polygon fill="none" points="208.71,495.55,214.71,477.55,202.71,477.55,208.71,495.55" style="stroke:#181818;stroke-width:1;"/></g><!--reverse link InstructionDefinitionBase to MoveForwardInstructionDefinition--><g class="link" data-entity-1="ent0013" data-entity-2="ent0019" data-link-type="extension" data-source-line="39" id="lnk27"><path codeLine="39" d="M89.71,562.35 C89.71,601.97 89.71,658 89.71,658 C89.71,658 808.28,658 1110.72,658" fill="none" id="InstructionDefinitionBase-backto-MoveForwardInstructionDefinition" style="stroke:#181818;stroke-width:1;"/><polygon fill="none" points="89.71,544.35,83.71,562.35,95.71,562.35,89.71,544.35" style="stroke:#181818;stroke-width:1;"/></g><!--reverse link InstructionDefinitionBase to RotateLeftInstructionDefinition--><g class="link" data-entity-1="ent0013" data-entity-2="ent0020" data-link-type="extension" data-source-line="40" id="lnk28"><path codeLine="40" d="M216.71,477.55 C216.71,465.56 216.71,471.67 216.71,471.67 C216.71,471.67 850.19,471.67 1121.46,471.67" fill="none" id="InstructionDefinitionBase-backto-RotateLeftInstructionDefinition" style="stroke:#181818;stroke-width:1;"/><polygon fill="none" points="216.71,495.55,222.71,477.55,210.71,477.55,216.71,495.55" style="stroke:#181818;stroke-width:1;"/></g><!--reverse link InstructionDefinitionBase to RotateRightInstructionDefinition--><g class="link" data-entity-1="ent0013" data-entity-2="ent0021" data-link-type="extension" data-source-line="41" id="lnk29"><path codeLine="41" d="M156.71,562.18 C156.71,577.43 156.71,576.25 156.71,576.25 C156.71,576.25 830.58,576.25 1116.52,576.25" fill="none" id="InstructionDefinitionBase-backto-RotateRightInstructionDefinition" style="stroke:#181818;stroke-width:1;"/><polygon fill="none" points="156.71,544.18,150.71,562.18,162.71,562.18,156.71,544.18" style="stroke:#181818;stroke-width:1;"/></g><!--reverse link ProgramRunner to ProgramDefinition--><g class="link" data-entity-1="ent0008" data-entity-2="ent0007" data-link-type="aggregation" data-source-line="43" id="lnk30"><path codeLine="43" d="M204.61,189.5 C264.22,189.5 328.71,189.5 328.71,189.5 C328.71,189.5 328.71,181.27 328.71,172.14" fill="none" id="ProgramRunner-backto-ProgramDefinition" style="stroke:#181818;stroke-width:1;"/><polygon fill="none" points="192.61,189.5,198.61,193.5,204.61,189.5,198.61,185.5,192.61,189.5" style="stroke:#181818;stroke-width:1;"/><text fill="#000000" font-family="sans-serif" font-size="13" lengthAdjust="spacing" textLength="33.7314" x="235.34" y="203.0684">loads</text></g><!--reverse link ProgramRunner to ExecutionFrame--><g class="link" data-entity-1="ent0008" data-entity-2="ent0009" data-link-type="composition" data-source-line="44" id="lnk31"><path codeLine="44" d="M204.48,210.5 C247.17,210.5 289.79,210.5 332.68,210.5" fill="none" id="ProgramRunner-backto-ExecutionFrame" style="stroke:#181818;stroke-width:1;"/><polygon fill="#181818" points="192.48,210.5,198.48,214.5,204.48,210.5,198.48,206.5,192.48,210.5" style="stroke:#181818;stroke-width:1;"/><text fill="#000000" font-family="sans-serif" font-size="13" lengthAdjust="spacing" textLength="56.5386" x="205.58" y="224.0684">manages</text></g><!--link ProgramRunner to StepResult--><g class="link" data-entity-1="ent0008" data-entity-2="ent0010" data-link-type="dependency" data-source-line="45" id="lnk32"><path codeLine="45" d="M123.71,165.6 C123.71,129.22 123.71,65 123.71,65 C123.71,65 264.32,65 345.07,65" fill="none" id="ProgramRunner-to-StepResult" style="stroke:#181818;stroke-width:1;"/><polygon fill="#181818" points="351.07,65,342.07,61,346.07,65,342.07,69,351.07,65" style="stroke:#181818;stroke-width:1;"/><text fill="#000000" font-family="sans-serif" font-size="13" lengthAdjust="spacing" textLength="45.5063" x="141.08" y="78.5684">returns</text></g><!--link ProgramRunner to IGame--><g class="link" data-entity-1="ent0008" data-entity-2="ent0003" data-link-type="dependency" data-source-line="46" id="lnk33"><path codeLine="46" d="M123.71,214.5 C123.71,250.64 123.71,314 123.71,314 C123.71,314 283.06,314 359.27,314" fill="none" id="ProgramRunner-to-IGame" style="stroke:#181818;stroke-width:1;"/><polygon fill="#181818" points="365.27,314,356.27,310,360.27,314,356.27,318,365.27,314" style="stroke:#181818;stroke-width:1;"/><text fill="#000000" font-family="sans-serif" font-size="13" lengthAdjust="spacing" textLength="76.083" x="117.74" y="327.5684">executes on</text></g><!--reverse link ProgramDefinition to InstructionInstance--><g class="link" data-entity-1="ent0007" data-entity-2="ent0005" data-link-type="composition" data-source-line="48" id="lnk34"><path codeLine="48" d="M476.71,184.14 C476.71,206.07 476.71,223 476.71,223 C476.71,223 533.25,223 584.5,223" fill="none" id="ProgramDefinition-backto-InstructionInstance" style="stroke:#181818;stroke-width:1;"/><polygon fill="#181818" points="476.71,172.14,472.71,178.14,476.71,184.14,480.71,178.14,476.71,172.14" style="stroke:#181818;stroke-width:1;"/><text fill="#000000" font-family="sans-serif" font-size="13" lengthAdjust="spacing" textLength="53.2061" x="506.17" y="219.5684">contains</text></g><!--reverse link ExecutionFrame to InstructionInstance--><g class="link" data-entity-1="ent0009" data-entity-2="ent0005" data-link-type="composition" data-source-line="49" id="lnk35"><path codeLine="49" d="M485.37,231 C519.59,231 548.89,231 584.44,231" fill="none" id="ExecutionFrame-backto-InstructionInstance" style="stroke:#181818;stroke-width:1;"/><polygon fill="#181818" points="473.37,231,479.37,235,485.37,231,479.37,227,473.37,231" style="stroke:#181818;stroke-width:1;"/><text fill="#000000" font-family="sans-serif" font-size="13" lengthAdjust="spacing" textLength="38.2446" x="489.91" y="244.5684">tracks</text></g><!--link StepResult to InstructionInstance--><g class="link" data-entity-1="ent0010" data-entity-2="ent0005" data-link-type="dependency" data-source-line="50" id="lnk36"><path codeLine="50" d="M454.76,73 C476.44,73 496.71,73 496.71,73 C496.71,73 496.71,215 496.71,215 C496.71,215 535.32,215 578.71,215" fill="none" id="StepResult-to-InstructionInstance" style="stroke:#181818;stroke-width:1;"/><polygon fill="#181818" points="584.71,215,575.71,211,579.71,215,575.71,219,584.71,215" style="stroke:#181818;stroke-width:1;"/><text fill="#000000" font-family="sans-serif" font-size="13" lengthAdjust="spacing" textLength="57.4717" x="497.71" y="180.5984">executed</text></g><!--link StepResult to StepExecutionStatus--><g class="link" data-entity-1="ent0010" data-entity-2="ent0011" data-link-type="dependency" data-source-line="51" id="lnk37"><path codeLine="51" d="M454.86,57 C490.77,57 533.36,57 574.85,57" fill="none" id="StepResult-to-StepExecutionStatus" style="stroke:#181818;stroke-width:1;"/><polygon fill="#181818" points="580.85,57,571.85,53,575.85,57,571.85,61,580.85,57" style="stroke:#181818;stroke-width:1;"/></g><!--link InstructionInstance to IInstructionDefinition--><g class="link" data-entity-1="ent0005" data-entity-2="ent0004" data-link-type="dependency" data-source-line="53" id="lnk38"><path codeLine="53" d="M737.71,255.14 C737.71,277.07 737.71,306 737.71,306 C737.71,306 785.59,306 836.43,306" fill="none" id="InstructionInstance-to-IInstructionDefinition" style="stroke:#181818;stroke-width:1;"/><polygon fill="#181818" points="842.43,306,833.43,302,837.43,306,833.43,310,842.43,306" style="stroke:#181818;stroke-width:1;"/><text fill="#000000" font-family="sans-serif" font-size="13" lengthAdjust="spacing" textLength="60.4614" x="703.64" y="319.5684">definition</text></g><!--reverse link InstructionInstance to InstructionInstance--><g class="link" data-entity-1="ent0005" data-entity-2="ent0005" data-link-type="composition" data-source-line="54" id="lnk39"><path codeLine="54" d="M572.61,247 C553.57,247 550.71,247 550.71,247 C550.71,247 550.71,272.5 550.71,272.5 C550.71,272.5 780.71,272.5 780.71,272.5 C780.71,272.5 780.71,239 780.71,239 C780.71,239 765.86,239 746.85,239" fill="none" id="InstructionInstance-backto-InstructionInstance" style="stroke:#181818;stroke-width:1;"/><polygon fill="#181818" points="584.61,247,578.61,243,572.61,247,578.61,251,584.61,247" style="stroke:#181818;stroke-width:1;"/><text fill="#000000" font-family="sans-serif" font-size="13" lengthAdjust="spacing" textLength="51.0542" x="612.68" y="291.0684">children</text></g><!--link InstructionInstance to InstructionParameterDefinition--><g class="link" data-entity-1="ent0005" data-entity-2="ent0006" data-link-type="dependency" data-source-line="55" id="lnk40"><path codeLine="55" d="M747.09,223 C767.02,223 782.77,223 804.11,223" fill="none" id="InstructionInstance-to-InstructionParameterDefinition" style="stroke:#181818;stroke-width:1;"/><polygon fill="#181818" points="810.11,223,801.11,219,805.11,223,801.11,227,810.11,223" style="stroke:#181818;stroke-width:1;"/><text fill="#000000" font-family="sans-serif" font-size="13" lengthAdjust="spacing" textLength="71.2905" x="706.6" y="219.5684">parameters</text></g><!--link SequenceInstructionDefinition to InstructionInstance--><g class="link" data-entity-1="ent0014" data-entity-2="ent0005" data-link-type="dependency" data-source-line="57" id="lnk41"><path codeLine="57" d="M516.71,495.55 C516.71,427.19 516.71,239 516.71,239 C516.71,239 543.74,239 578.7,239" fill="none" id="SequenceInstructionDefinition-to-InstructionInstance" style="stroke:#181818;stroke-width:1;stroke-dasharray:7,7;"/><polygon fill="#181818" points="584.7,239,575.7,235,579.7,239,575.7,243,584.7,239" style="stroke:#181818;stroke-width:1;"/><text fill="#000000" font-family="sans-serif" font-size="13" lengthAdjust="spacing" textLength="53.4536" x="462.71" y="346.8484">expands</text></g><!--link RepeatInstructionDefinition to InstructionInstance--><g class="link" data-entity-1="ent0015" data-entity-2="ent0005" data-link-type="dependency" data-source-line="58" id="lnk42"><path codeLine="58" d="M512.54,434.5 C555.5,434.5 594.71,434.5 594.71,434.5 C594.71,434.5 594.71,315.05 594.71,261.14" fill="none" id="RepeatInstructionDefinition-to-InstructionInstance" style="stroke:#181818;stroke-width:1;stroke-dasharray:7,7;"/><polygon fill="#181818" points="594.71,255.14,590.71,264.14,594.71,260.14,598.71,264.14,594.71,255.14" style="stroke:#181818;stroke-width:1;"/><text fill="#000000" font-family="sans-serif" font-size="13" lengthAdjust="spacing" textLength="53.4536" x="540.71" y="399.4684">expands</text></g><!--link MoveForwardInstructionDefinition to IMovingGame--><g class="link" data-entity-1="ent0019" data-entity-2="ent0017" data-link-type="dependency" data-source-line="60" id="lnk43"><path codeLine="60" d="M1110.85,646 C934.88,646 644.71,646 644.71,646 C644.71,646 644.71,584.63 644.71,547.26" fill="none" id="MoveForwardInstructionDefinition-to-IMovingGame" style="stroke:#181818;stroke-width:1;stroke-dasharray:7,7;"/><polygon fill="#181818" points="644.71,541.26,640.71,550.26,644.71,546.26,648.71,550.26,644.71,541.26" style="stroke:#181818;stroke-width:1;"/><text fill="#000000" font-family="sans-serif" font-size="13" lengthAdjust="spacing" textLength="76.083" x="748.41" y="659.5684">executes on</text></g><!--link RotateLeftInstructionDefinition to IMovingGame--><g class="link" data-entity-1="ent0020" data-entity-2="ent0017" data-link-type="dependency" data-source-line="61" id="lnk44"><path codeLine="61" d="M1121.47,482.33 C958,482.33 686.71,482.33 686.71,482.33 C686.71,482.33 686.71,480.81 686.71,486.55" fill="none" id="RotateLeftInstructionDefinition-to-IMovingGame" style="stroke:#181818;stroke-width:1;stroke-dasharray:7,7;"/><polygon fill="#181818" points="686.71,492.55,690.71,483.55,686.71,487.55,682.71,483.55,686.71,492.55" style="stroke:#181818;stroke-width:1;"/><text fill="#000000" font-family="sans-serif" font-size="13" lengthAdjust="spacing" textLength="76.083" x="821.98" y="478.8984">executes on</text></g><!--link RotateRightInstructionDefinition to IMovingGame--><g class="link" data-entity-1="ent0021" data-entity-2="ent0017" data-link-type="dependency" data-source-line="62" id="lnk45"><path codeLine="62" d="M1116.64,565.5 C952.72,565.5 686.71,565.5 686.71,565.5 C686.71,565.5 686.71,559.38 686.71,547.25" fill="none" id="RotateRightInstructionDefinition-to-IMovingGame" style="stroke:#181818;stroke-width:1;stroke-dasharray:7,7;"/><polygon fill="#181818" points="686.71,541.25,682.71,550.25,686.71,546.25,690.71,550.25,686.71,541.25" style="stroke:#181818;stroke-width:1;"/><text fill="#000000" font-family="sans-serif" font-size="13" lengthAdjust="spacing" textLength="76.083" x="812.55" y="579.0684">executes on</text></g><!--reverse link MovingGame to MoveForwardInstructionDefinition--><g class="link" data-entity-1="ent0018" data-entity-2="ent0019" data-link-type="aggregation" data-source-line="64" id="lnk46"><path codeLine="64" d="M910.71,553.24 C910.71,587.51 910.71,634 910.71,634 C910.71,634 1018.22,634 1110.82,634" fill="none" id="MovingGame-backto-MoveForwardInstructionDefinition" style="stroke:#181818;stroke-width:1;"/><polygon fill="none" points="910.71,541.24,906.71,547.24,910.71,553.24,914.71,547.24,910.71,541.24" style="stroke:#181818;stroke-width:1;"/><text fill="#000000" font-family="sans-serif" font-size="13" lengthAdjust="spacing" textLength="54.0249" x="909.39" y="647.5684">provides</text></g><!--reverse link MovingGame to RotateLeftInstructionDefinition--><g class="link" data-entity-1="ent0018" data-entity-2="ent0020" data-link-type="aggregation" data-source-line="65" id="lnk47"><path codeLine="65" d="M1003.22,498.5 C1040.21,498.5 1076.85,498.5 1121.47,498.5" fill="none" id="MovingGame-backto-RotateLeftInstructionDefinition" style="stroke:#181818;stroke-width:1;"/><polygon fill="none" points="991.22,498.5,997.22,502.5,1003.22,498.5,997.22,494.5,991.22,498.5" style="stroke:#181818;stroke-width:1;"/><text fill="#000000" font-family="sans-serif" font-size="13" lengthAdjust="spacing" textLength="54.0249" x="1001.35" y="512.0684">provides</text></g><!--reverse link MovingGame to RotateRightInstructionDefinition--><g class="link" data-entity-1="ent0018" data-entity-2="ent0021" data-link-type="aggregation" data-source-line="66" id="lnk48"><path codeLine="66" d="M950.71,553.12 C950.71,560.52 950.71,554.75 950.71,554.75 C950.71,554.75 1037.63,554.75 1116.57,554.75" fill="none" id="MovingGame-backto-RotateRightInstructionDefinition" style="stroke:#181818;stroke-width:1;"/><polygon fill="none" points="950.71,541.12,946.71,547.12,950.71,553.12,954.71,547.12,950.71,541.12" style="stroke:#181818;stroke-width:1;"/><text fill="#000000" font-family="sans-serif" font-size="13" lengthAdjust="spacing" textLength="54.0249" x="971.82" y="568.3184">provides</text></g><?plantuml-src ZLJRRjim37tNLn1z791ipq4nOBSM0JQWIBv0jPb4Y2Dv4jLsjtyVRNMUxCYItmJo7EgGuf4xAzrAAozGDTAv3qHMFNh2RMNqNlr4U2VS06cKHlhH8XXB9oCQF12G0QkE9u9QMQn86Ir4AwkpF2BSV38MR-2N052Qq1vaXR2zbnSSHxRQaVKz-JCUb5Pz6GYI8CfsHwahJEKUEed8DQCI0-x1cYEd4zLVCpklDTeX-kK5Az_XxcnG6y9xmdQ7pZV48TJ-qaS6y9uaUIV-H1E81Bem2Vd84LdHTGV_rNsKBheKltlaflDJsc6BajAOM50tVGTluPjvKlfuzJWXV1ytdGxXdR7FqjO5LOP7WbzvKPRWTjqYpRRGBmxS_bwjHZAZCoVNwrYlIAzMmCrFNiocmlNv5ocGSmzLe1R7Nhgwy1gBw9b74YCpWM7EbV5W0usHjPjWtp1sR3e6NgJcdPr2LwltaH4PPf6yrIbOM9aDO5-PzpuI6KdgBa_yCapaNv2aujeJRVECpjjd9oA1lP0azbLMFKMdFXMHAj6NJg_u1khammxSJDCdrTGMzVoLsL-NAxJ_egmxQnPOh-U7qqhDUvBnomAsA7acr8Z-aF6s52opY3tlc09TH1cpmF_Tv2rJQlRCX5hgeyJCz11H_m80?></g></svg>